<?xml version="1.0" standalone="no"?><!DOCTYPE svg PUBLIC "-//W3C//DTD SVG 1.1//EN" "http://www.w3.org/Graphics/SVG/1.1/DTD/svg11.dtd"><svg t="1660636109098" class="icon" viewBox="0 0 1025 1024" version="1.1" xmlns="http://www.w3.org/2000/svg" p-id="2400" width="128.125" height="128" xmlns:xlink="http://www.w3.org/1999/xlink"><defs><style type="text/css"></style></defs><path d="M426.666667 921.6c-6.826667 0-13.653333-3.413333-13.653334-10.24C372.053333 832.853333 126.293333 716.8 51.2 716.8c-10.24 0-17.066667-6.826667-17.066667-17.066667s6.826667-17.066667 17.066667-17.066666c88.746667 0 344.746667 122.88 389.12 215.04 3.413333 6.826667 0 17.066667-6.826667 23.893333h-6.826666z" fill="" p-id="2401"></path><path d="M341.333333 836.266667c-3.413333 0-10.24 0-10.24-3.413334-6.826667-6.826667-6.826667-17.066667 0-23.893333C382.293333 750.933333 546.133333 750.933333 563.2 750.933333c10.24 0 17.066667 6.826667 17.066667 17.066667s-6.826667 17.066667-17.066667 17.066667h-3.413333c-47.786667 0-170.666667 6.826667-204.8 44.373333-3.413333 3.413333-10.24 6.826667-13.653334 6.826667zM1006.933333 921.6c-3.413333 0-6.826667 0-10.24-3.413333-44.373333-27.306667-163.84-92.16-197.973333-98.986667-10.24-3.413333-13.653333-10.24-13.653333-20.48 3.413333-10.24 10.24-13.653333 20.48-13.653333 47.786667 10.24 194.56 95.573333 211.626666 105.813333 6.826667 3.413333 10.24 13.653333 6.826667 23.893333-6.826667 3.413333-10.24 6.826667-17.066667 6.826667zM358.4 102.4c-10.24 0-17.066667-6.826667-17.066667-17.066667v-68.266666c0-10.24 6.826667-17.066667 17.066667-17.066667s17.066667 6.826667 17.066667 17.066667v68.266666c0 10.24-6.826667 17.066667-17.066667 17.066667zM358.4 716.8c-10.24 0-17.066667-6.826667-17.066667-17.066667v-68.266666c0-10.24 6.826667-17.066667 17.066667-17.066667s17.066667 6.826667 17.066667 17.066667v68.266666c0 10.24-6.826667 17.066667-17.066667 17.066667zM221.866667 139.946667c-6.826667 0-10.24-3.413333-13.653334-10.24l-34.133333-58.026667c-6.826667-6.826667-3.413333-20.48 3.413333-23.893333 6.826667-3.413333 17.066667-3.413333 23.893334 6.826666l34.133333 58.026667c6.826667 10.24 3.413333 20.48-6.826667 23.893333 0 3.413333-3.413333 3.413333-6.826666 3.413334zM529.066667 672.426667c-6.826667 0-10.24-3.413333-13.653334-10.24l-34.133333-58.026667c-3.413333-6.826667-3.413333-17.066667 6.826667-23.893333 6.826667-3.413333 17.066667-3.413333 23.893333 6.826666l34.133333 58.026667c3.413333 6.826667 3.413333 17.066667-6.826666 23.893333-3.413333 0-6.826667 3.413333-10.24 3.413334zM122.88 238.933333c-3.413333 0-6.826667 0-10.24-3.413333l-58.026667-34.133333c-6.826667-3.413333-10.24-13.653333-6.826666-20.48s13.653333-10.24 23.893333-6.826667l58.026667 34.133333c10.24 3.413333 10.24 13.653333 6.826666 23.893334-3.413333 3.413333-10.24 6.826667-13.653333 6.826666zM655.36 546.133333c-3.413333 0-6.826667 0-10.24-3.413333l-58.026667-34.133333c-6.826667-3.413333-10.24-13.653333-6.826666-23.893334s13.653333-10.24 23.893333-6.826666l58.026667 34.133333c6.826667 3.413333 10.24 13.653333 6.826666 23.893333-3.413333 6.826667-10.24 10.24-13.653333 10.24zM85.333333 375.466667h-68.266666c-10.24 0-17.066667-6.826667-17.066667-17.066667s6.826667-17.066667 17.066667-17.066667h68.266666c10.24 0 17.066667 6.826667 17.066667 17.066667s-6.826667 17.066667-17.066667 17.066667zM699.733333 375.466667h-68.266666c-10.24 0-17.066667-6.826667-17.066667-17.066667s6.826667-17.066667 17.066667-17.066667h68.266666c10.24 0 17.066667 6.826667 17.066667 17.066667s-6.826667 17.066667-17.066667 17.066667zM61.44 546.133333c-6.826667 0-10.24-3.413333-13.653333-10.24-3.413333-6.826667-3.413333-17.066667 6.826666-23.893333l58.026667-34.133333c10.24-3.413333 20.48 0 23.893333 10.24 3.413333 6.826667 3.413333 17.066667-6.826666 23.893333l-58.026667 34.133333h-10.24zM593.92 238.933333c-6.826667 0-10.24-3.413333-13.653333-10.24-3.413333-6.826667-3.413333-17.066667 6.826666-23.893333l58.026667-34.133333c6.826667-3.413333 17.066667-3.413333 23.893333 6.826666 3.413333 6.826667 3.413333 17.066667-6.826666 23.893334l-58.026667 34.133333c-3.413333 3.413333-6.826667 3.413333-10.24 3.413333zM187.733333 672.426667c-3.413333 0-6.826667 0-10.24-3.413334-6.826667-3.413333-10.24-13.653333-6.826666-23.893333l34.133333-58.026667c3.413333-6.826667 13.653333-10.24 23.893333-6.826666 6.826667 3.413333 10.24 13.653333 6.826667 23.893333l-34.133333 58.026667c-3.413333 6.826667-6.826667 10.24-13.653334 10.24zM494.933333 139.946667c-3.413333 0-6.826667 0-10.24-3.413334-6.826667-3.413333-10.24-13.653333-6.826666-23.893333l34.133333-58.026667c3.413333-6.826667 13.653333-10.24 23.893333-6.826666 6.826667 3.413333 10.24 13.653333 6.826667 23.893333l-34.133333 58.026667c-3.413333 6.826667-6.826667 10.24-13.653334 10.24zM358.4 546.133333c-102.4 0-187.733333-85.333333-187.733333-187.733333S256 170.666667 358.4 170.666667 546.133333 256 546.133333 358.4 460.8 546.133333 358.4 546.133333z m0-341.333333C273.066667 204.8 204.8 273.066667 204.8 358.4S273.066667 512 358.4 512s153.6-68.266667 153.6-153.6S443.733333 204.8 358.4 204.8z" fill="" p-id="2402"></path><path d="M802.133333 1024h-68.266666c-10.24 0-17.066667-6.826667-17.066667-17.066667V887.466667h-119.466667-3.413333c-27.306667 0-47.786667-23.893333-47.786667-51.2v-102.4c0-27.306667 23.893333-51.2 51.2-51.2s51.2 23.893333 51.2 51.2V785.066667h68.266667v-256c0-27.306667 23.893333-51.2 51.2-51.2s51.2 23.893333 51.2 51.2V648.533333h102.4v-51.2c0-27.306667 23.893333-51.2 51.2-51.2s51.2 23.893333 51.2 51.2v102.4c0 27.306667-20.48 47.786667-47.786667 51.2H819.2v256c0 10.24-6.826667 17.066667-17.066667 17.066667zM750.933333 989.866667h34.133334v-256c0-10.24 6.826667-17.066667 17.066666-17.066667h170.666667c10.24 0 17.066667-6.826667 17.066667-17.066667v-102.4c0-10.24-6.826667-17.066667-17.066667-17.066666s-17.066667 6.826667-17.066667 17.066666v68.266667c0 10.24-6.826667 17.066667-17.066666 17.066667h-136.533334c-10.24 0-17.066667-6.826667-17.066666-17.066667v-136.533333c0-10.24-6.826667-17.066667-17.066667-17.066667s-17.066667 6.826667-17.066667 17.066667v273.066666c0 10.24-6.826667 17.066667-17.066666 17.066667h-102.4c-10.24 0-17.066667-6.826667-17.066667-17.066667v-68.266666c0-10.24-6.826667-17.066667-17.066667-17.066667s-17.066667 6.826667-17.066666 17.066667v102.4c0 10.24 6.826667 17.066667 17.066666 17.066666h136.533334c10.24 0 17.066667 6.826667 17.066666 17.066667V989.866667z" fill="" p-id="2403"></path></svg>